<?xml version="1.0" encoding="UTF-8" standalone="no"?>
<!-- Created with Inkscape (http://www.inkscape.org/) -->

<svg
   xmlns:dc="http://purl.org/dc/elements/1.1/"
   xmlns:cc="http://creativecommons.org/ns#"
   xmlns:rdf="http://www.w3.org/1999/02/22-rdf-syntax-ns#"
   xmlns:svg="http://www.w3.org/2000/svg"
   xmlns="http://www.w3.org/2000/svg"
   xmlns:sodipodi="http://sodipodi.sourceforge.net/DTD/sodipodi-0.dtd"
   xmlns:inkscape="http://www.inkscape.org/namespaces/inkscape"
   width="50"
   height="50"
   id="svg2991"
   version="1.1"
   inkscape:version="0.48.5 r10040"
   sodipodi:docname="1.svg">
  <defs
     id="defs2993" />
  <sodipodi:namedview
     id="base"
     pagecolor="#ffffff"
     bordercolor="#666666"
     borderopacity="1.0"
     inkscape:pageopacity="0.0"
     inkscape:pageshadow="2"
     inkscape:zoom="11.313709"
     inkscape:cx="53.690853"
     inkscape:cy="26.753523"
     inkscape:document-units="px"
     inkscape:current-layer="layer1"
     showgrid="false"
     borderlayer="true"
     inkscape:showpageshadow="false"
     units="ft"
     showguides="true"
     inkscape:guide-bbox="true"
     inkscape:window-width="2560"
     inkscape:window-height="1387"
     inkscape:window-x="0"
     inkscape:window-y="27"
     inkscape:window-maximized="1">
    <sodipodi:guide
       orientation="0,1"
       position="-10.375,25"
       id="guide3787" />
    <sodipodi:guide
       orientation="1,0"
       position="25,25"
       id="guide3789" />
  </sodipodi:namedview>
  <metadata
     id="metadata2996">
    <rdf:RDF>
      <cc:Work
         rdf:about="">
        <dc:format>image/svg+xml</dc:format>
        <dc:type
           rdf:resource="http://purl.org/dc/dcmitype/StillImage" />
        <dc:title></dc:title>
      </cc:Work>
    </rdf:RDF>
  </metadata>
  <g
     inkscape:label="Calque 1"
     inkscape:groupmode="layer"
     id="layer1"
     transform="translate(0,-1002.362)">
    <path
       sodipodi:type="arc"
       style="fill:#96b011;fill-opacity:1;fill-rule:nonzero;stroke:none"
       id="path3017"
       sodipodi:cx="31.071428"
       sodipodi:cy="19.017857"
       sodipodi:rx="19.017857"
       sodipodi:ry="19.017857"
       d="m 50.089285,19.017857 a 19.017857,19.017857 0 1 1 -38.035713,0 19.017857,19.017857 0 1 1 38.035713,0 z"
       transform="matrix(1.3145561,0,0,1.3145561,-15.838714,1002.362)" />
    <path
       style="fill:#ffffff"
       inkscape:connector-curvature="0"
       d="m 37.343907,1023.3806 c 0,-3.5057 -2.920717,-6.3479 -6.524449,-6.3479 -2.544886,0 -4.743326,1.4201 -5.818717,3.488 -1.075885,-2.0679 -3.274324,-3.488 -5.81921,-3.488 -3.603486,0 -6.524203,2.8422 -6.524203,6.3479 0,0.02 0.0027,0.04 0.0032,0.06 -0.03235,0.6907 -0.0084,7.3835 12.339462,14.3954 l 7.41e-4,0 c 9.88e-4,0 0.0025,0 0.0035,0 9.88e-4,0 0.0025,0 0.0035,0 l 0.0012,0 c 13.039763,-7.4048 12.335017,-14.4552 12.335017,-14.4552 z"
       id="path4" />
  </g>
</svg>
