<?xml version="1.0" encoding="UTF-8" standalone="no"?>
<!-- Created with Inkscape (http://www.inkscape.org/) -->

<svg
   xmlns:dc="http://purl.org/dc/elements/1.1/"
   xmlns:cc="http://creativecommons.org/ns#"
   xmlns:rdf="http://www.w3.org/1999/02/22-rdf-syntax-ns#"
   xmlns:svg="http://www.w3.org/2000/svg"
   xmlns="http://www.w3.org/2000/svg"
   xmlns:sodipodi="http://sodipodi.sourceforge.net/DTD/sodipodi-0.dtd"
   xmlns:inkscape="http://www.inkscape.org/namespaces/inkscape"
   width="50"
   height="50"
   id="svg2991"
   version="1.1"
   inkscape:version="0.48.5 r10040"
   sodipodi:docname="2.svg">
  <defs
     id="defs2993" />
  <sodipodi:namedview
     id="base"
     pagecolor="#ffffff"
     bordercolor="#666666"
     borderopacity="1.0"
     inkscape:pageopacity="0.0"
     inkscape:pageshadow="2"
     inkscape:zoom="8"
     inkscape:cx="44.265099"
     inkscape:cy="35.283508"
     inkscape:document-units="px"
     inkscape:current-layer="layer1"
     showgrid="false"
     borderlayer="true"
     inkscape:showpageshadow="false"
     units="ft"
     showguides="true"
     inkscape:guide-bbox="true"
     inkscape:window-width="2560"
     inkscape:window-height="1387"
     inkscape:window-x="0"
     inkscape:window-y="27"
     inkscape:window-maximized="1">
    <sodipodi:guide
       orientation="0,1"
       position="-10.375,25"
       id="guide3787" />
    <sodipodi:guide
       orientation="1,0"
       position="25,25"
       id="guide3789" />
  </sodipodi:namedview>
  <metadata
     id="metadata2996">
    <rdf:RDF>
      <cc:Work
         rdf:about="">
        <dc:format>image/svg+xml</dc:format>
        <dc:type
           rdf:resource="http://purl.org/dc/dcmitype/StillImage" />
        <dc:title></dc:title>
      </cc:Work>
    </rdf:RDF>
  </metadata>
  <g
     inkscape:label="Calque 1"
     inkscape:groupmode="layer"
     id="layer1"
     transform="translate(0,-1002.362)">
    <path
       sodipodi:type="arc"
       style="fill:#96b011;fill-opacity:1;fill-rule:nonzero;stroke:none"
       id="path3017"
       sodipodi:cx="31.071428"
       sodipodi:cy="19.017857"
       sodipodi:rx="19.017857"
       sodipodi:ry="19.017857"
       d="m 50.089285,19.017857 a 19.017857,19.017857 0 1 1 -38.035713,0 19.017857,19.017857 0 1 1 38.035713,0 z"
       transform="matrix(1.3145561,0,0,1.3145561,-15.838714,1002.362)" />
    <path
       inkscape:connector-curvature="0"
       d="m 25,1014.6197 c -7.037087,0 -12.742298,5.705 -12.742298,12.7423 0,7.0375 5.704906,12.7423 12.742298,12.7423 7.037392,0 12.742298,-5.7048 12.742298,-12.7423 0,-7.0373 -5.704906,-12.7423 -12.742298,-12.7423 z m 4.813533,7.4709 c 1.288894,0 2.332994,1.045 2.332994,2.3335 0,0.5836 -0.215221,1.1153 -0.568844,1.5243 -0.4277,-0.495 -1.058734,-0.8093 -1.76415,-0.8093 -0.705415,0 -1.336754,0.3145 -1.764454,0.8097 -0.353928,-0.4092 -0.569149,-0.9411 -0.569149,-1.5247 0,-1.2885 1.04471,-2.3335 2.333603,-2.3335 z m -9.627066,0 c 1.288893,0 2.333908,1.045 2.333908,2.3335 0,0.5836 -0.215526,1.1153 -0.569149,1.5243 -0.428005,-0.495 -1.059344,-0.8093 -1.764759,-0.8093 -0.705417,0 -1.33645,0.3145 -1.764455,0.8093 -0.353927,-0.409 -0.569149,-0.9411 -0.569149,-1.5243 3.05e-4,-1.2885 1.045015,-2.3335 2.333604,-2.3335 z m 12.603287,9.6881 c -1.551671,2.8622 -4.536732,4.6406 -7.789754,4.6406 -3.253022,0 -6.237779,-1.7782 -7.789754,-4.6406 -0.238695,-0.4394 -0.0753,-0.9899 0.364901,-1.2285 0.439894,-0.2388 14.408592,-0.239 14.849401,0 0.440503,0.2382 0.603901,0.7889 0.365206,1.2291 z"
       id="path4"
       style="fill:#f9f9f9" />
  </g>
</svg>
