<?xml version="1.0" encoding="UTF-8" standalone="no"?>
<svg
   xmlns:dc="http://purl.org/dc/elements/1.1/"
   xmlns:cc="http://creativecommons.org/ns#"
   xmlns:rdf="http://www.w3.org/1999/02/22-rdf-syntax-ns#"
   xmlns:svg="http://www.w3.org/2000/svg"
   xmlns="http://www.w3.org/2000/svg"
   xmlns:sodipodi="http://sodipodi.sourceforge.net/DTD/sodipodi-0.dtd"
   xmlns:inkscape="http://www.inkscape.org/namespaces/inkscape"
   viewBox="0 0 49.830509 49.830509"
   version="1.1"
   x="0px"
   y="0px"
   id="svg2"
   inkscape:version="0.48.5 r10040"
   width="100%"
   height="100%"
   sodipodi:docname="ribbon.svg">
  <metadata
     id="metadata14">
    <rdf:RDF>
      <cc:Work
         rdf:about="">
        <dc:format>image/svg+xml</dc:format>
        <dc:type
           rdf:resource="http://purl.org/dc/dcmitype/StillImage" />
        <dc:title />
      </cc:Work>
    </rdf:RDF>
  </metadata>
  <defs
     id="defs12" />
  <sodipodi:namedview
     pagecolor="#ffffff"
     bordercolor="#666666"
     borderopacity="1"
     objecttolerance="10"
     gridtolerance="10"
     guidetolerance="10"
     inkscape:pageopacity="0"
     inkscape:pageshadow="2"
     inkscape:window-width="2560"
     inkscape:window-height="1387"
     id="namedview10"
     showgrid="false"
     inkscape:zoom="16.68772"
     inkscape:cx="23.163277"
     inkscape:cy="28.689245"
     inkscape:window-x="0"
     inkscape:window-y="27"
     inkscape:window-maximized="1"
     inkscape:current-layer="g4"
     fit-margin-top="0"
     fit-margin-left="0"
     fit-margin-right="0"
     fit-margin-bottom="0"
     borderlayer="true"
     inkscape:showpageshadow="false" />
  <g
     transform="matrix(0.141153,0.03782183,-0.03782183,0.141153,122.72863,-15.780954)"
     id="g4">
    <path
       transform="matrix(6.6099389,-1.7711277,1.7711277,6.6099389,-162.78326,78.569047)"
       style="fill:#879e0f;fill-opacity:1;fill-rule:nonzero;stroke:none"
       d="m -96.779663,10.847458 49.830509,0 0,49.830509 c -50.066222,-49.901216 0,0.183994 -49.830509,-49.830509 z"
       id="rect3833"
       inkscape:connector-curvature="0"
       sodipodi:nodetypes="cccc" />
    <g
       transform="matrix(3.4619759,1.9987728,-1.9987728,3.4619759,-497.76404,171.20633)"
       style="font-size:40px;font-style:normal;font-weight:bold;text-align:center;line-height:125%;letter-spacing:0px;word-spacing:0px;text-anchor:middle;fill:#ffffff;fill-opacity:1;stroke:none;font-family:Sans;-inkscape-font-specification:Sans Bold"
       id="flowRoot3893">
      <path
         d="m 14.779297,42.342114 -3.979492,0 0,-7.138672 3.979492,0 0,0.737305 -3.149414,0 0,2.299805 2.958984,0 0,0.732421 -2.958984,0 0,2.626954 3.149414,0 0,0.742187 m -2.734375,-7.832031 c 0.156247,-0.201815 0.323891,-0.445955 0.50293,-0.732422 0.182288,-0.286449 0.325517,-0.535473 0.429687,-0.74707 l 0.986328,0 0,0.102539 c -0.143233,0.211597 -0.356449,0.472014 -0.639648,0.78125 -0.283207,0.309253 -0.528975,0.54851 -0.737305,0.717773 l -0.541992,0 0,-0.12207"
         style="font-size:10px;font-variant:normal;font-weight:normal;font-stretch:normal;fill:#ffffff;font-family:Open Sans;-inkscape-font-specification:Open Sans"
         id="path3904" />
      <path
         d="m 17.054687,42.342114 -0.810546,0 0,-7.597656 0.810546,0 0,7.597656"
         style="font-size:10px;font-variant:normal;font-weight:normal;font-stretch:normal;fill:#ffffff;font-family:Open Sans;-inkscape-font-specification:Open Sans"
         id="path3906" />
      <path
         d="m 19.544922,36.990552 0,3.471679 c -2e-6,0.4362 0.09928,0.76172 0.297851,0.976563 0.198566,0.214844 0.509438,0.322266 0.932618,0.322265 0.559892,10e-7 0.96842,-0.152994 1.225586,-0.458984 0.260412,-0.305988 0.39062,-0.805662 0.390625,-1.499023 l 0,-2.8125 0.810546,0 0,5.351562 -0.668945,0 -0.117187,-0.717773 -0.04395,0 c -0.16602,0.263672 -0.397139,0.465495 -0.693359,0.605468 -0.292972,0.139974 -0.628258,0.209961 -1.005859,0.209961 -0.651044,0 -1.139325,-0.154622 -1.464844,-0.463867 -0.322267,-0.309244 -0.483399,-0.804035 -0.483399,-1.484375 l 0,-3.500976 0.820313,0"
         style="font-size:10px;font-variant:normal;font-weight:normal;font-stretch:normal;fill:#ffffff;font-family:Open Sans;-inkscape-font-specification:Open Sans"
         id="path3908" />
      <path
         d="m -3.4873047,54.842114 0,-3.481445 c -7.7e-6,-0.426429 -0.091153,-0.745439 -0.2734375,-0.957031 -0.1822989,-0.21484 -0.4655017,-0.322261 -0.8496094,-0.322266 -0.5045633,5e-6 -0.8772843,0.144861 -1.118164,0.43457 -0.2408906,0.289718 -0.3613332,0.735681 -0.3613281,1.337891 l 0,2.988281 -0.8105469,0 0,-3.481445 c -4.3e-6,-0.426429 -0.09115,-0.745439 -0.2734375,-0.957031 -0.1822955,-0.21484 -0.4671259,-0.322261 -0.8544922,-0.322266 -0.5078151,5e-6 -0.8805361,0.152999 -1.1181641,0.458984 -0.2343768,0.302739 -0.3515641,0.800785 -0.3515625,1.494141 l 0,2.807617 -0.8105471,0 0,-5.351562 0.6591799,0 0.131836,0.732421 0.039063,0 c 0.1529929,-0.260411 0.3678365,-0.463862 0.6445312,-0.610351 0.2799453,-0.146479 0.592445,-0.219721 0.9375,-0.219727 0.8365845,6e-6 1.3834589,0.30274 1.640625,0.908203 l 0.039063,0 c 0.1595001,-0.279943 0.3906197,-0.501297 0.6933594,-0.664062 0.3027284,-0.162755 0.6477802,-0.244135 1.0351563,-0.244141 0.6054614,6e-6 1.0579349,0.156256 1.3574218,0.46875 0.3027261,0.30925 0.4540931,0.805669 0.4541016,1.489258 l 0,3.491211 -0.8105469,0"
         style="font-size:10px;font-variant:normal;font-weight:normal;font-stretch:normal;fill:#ffffff;font-family:Open Sans;-inkscape-font-specification:Open Sans"
         id="path3910" />
      <path
         d="m 1.2490234,54.93977 c -0.79101792,0 -1.41601729,-0.240885 -1.87499996,-0.722656 -0.45572994,-0.48177 -0.68359434,-1.150714 -0.68359374,-2.006836 -6e-7,-0.862627 0.2115878,-1.547847 0.63476561,-2.055664 0.42643067,-0.507807 0.99771916,-0.761713 1.71386719,-0.761719 0.6705693,6e-6 1.2011678,0.22136 1.5917969,0.664063 0.3906201,0.439457 0.5859324,1.020511 0.5859375,1.743164 l 0,0.512695 -3.68652346,0 c 0.0162746,0.628257 0.17415207,1.105145 0.47363281,1.430664 0.3027322,0.325522 0.72753646,0.488282 1.27441405,0.488282 0.5761682,0 1.1458291,-0.120442 1.7089844,-0.361329 l 0,0.722657 c -0.2864629,0.123698 -0.5582725,0.211588 -0.8154297,0.263672 -0.25391,0.05534 -0.5615269,0.08301 -0.9228516,0.08301 M 1.0292969,50.071606 c -0.42969,5e-6 -0.77311413,0.139979 -1.0302734625,0.419922 C -0.25488443,50.77148 -0.40462386,51.15885 -0.45019531,51.653638 l 2.79785161,0 C 2.347652,51.142574 2.2337199,50.751949 2.0058594,50.481763 1.7779911,50.20833 1.4524706,50.071611 1.0292969,50.071606"
         style="font-size:10px;font-variant:normal;font-weight:normal;font-stretch:normal;fill:#ffffff;font-family:Open Sans;-inkscape-font-specification:Open Sans"
         id="path3912" />
      <path
         d="m 5.4042969,54.842114 -0.8105469,0 0,-5.351562 0.8105469,0 0,5.351562 M 4.5253906,48.040356 c -8e-7,-0.18554 0.045572,-0.320631 0.1367188,-0.405273 0.091145,-0.08788 0.205077,-0.131829 0.3417968,-0.131836 0.130207,7e-6 0.2425116,0.04395 0.3369141,0.131836 0.094399,0.0879 0.1415998,0.222989 0.1416016,0.405273 -1.8e-6,0.182299 -0.047202,0.319017 -0.1416016,0.410157 -0.094403,0.0879 -0.2067071,0.131842 -0.3369141,0.131835 -0.1367198,7e-6 -0.250652,-0.04394 -0.3417968,-0.131835 -0.091147,-0.09114 -0.1367196,-0.227858 -0.1367188,-0.410157"
         style="font-size:10px;font-variant:normal;font-weight:normal;font-stretch:normal;fill:#ffffff;font-family:Open Sans;-inkscape-font-specification:Open Sans"
         id="path3914" />
      <path
         d="m 7.9433594,54.842114 -0.8105469,0 0,-7.597656 0.8105469,0 0,7.597656"
         style="font-size:10px;font-variant:normal;font-weight:normal;font-stretch:normal;fill:#ffffff;font-family:Open Sans;-inkscape-font-specification:Open Sans"
         id="path3916" />
      <path
         d="m 10.482422,54.842114 -0.810547,0 0,-7.597656 0.810547,0 0,7.597656"
         style="font-size:10px;font-variant:normal;font-weight:normal;font-stretch:normal;fill:#ffffff;font-family:Open Sans;-inkscape-font-specification:Open Sans"
         id="path3918" />
      <path
         d="m 14.47168,54.93977 c -0.791018,0 -1.416018,-0.240885 -1.875,-0.722656 -0.45573,-0.48177 -0.683595,-1.150714 -0.683594,-2.006836 -10e-7,-0.862627 0.211588,-1.547847 0.634766,-2.055664 0.42643,-0.507807 0.997719,-0.761713 1.713867,-0.761719 0.670569,6e-6 1.201168,0.22136 1.591797,0.664063 0.39062,0.439457 0.585932,1.020511 0.585937,1.743164 l 0,0.512695 -3.686523,0 c 0.01627,0.628257 0.174152,1.105145 0.473633,1.430664 0.302732,0.325522 0.727536,0.488282 1.274414,0.488282 0.576168,0 1.145829,-0.120442 1.708984,-0.361329 l 0,0.722657 c -0.286463,0.123698 -0.558273,0.211588 -0.81543,0.263672 -0.25391,0.05534 -0.561527,0.08301 -0.922851,0.08301 m -0.219727,-4.868164 c -0.42969,5e-6 -0.773114,0.139979 -1.030273,0.419922 -0.253908,0.279952 -0.403648,0.667322 -0.449219,1.16211 l 2.797852,0 c -5e-6,-0.511064 -0.113937,-0.901689 -0.341797,-1.171875 -0.227869,-0.273433 -0.553389,-0.410152 -0.976563,-0.410157"
         style="font-size:10px;font-variant:normal;font-weight:normal;font-stretch:normal;fill:#ffffff;font-family:Open Sans;-inkscape-font-specification:Open Sans"
         id="path3920" />
      <path
         d="m 18.578125,49.490552 0,3.471679 c -2e-6,0.4362 0.09928,0.76172 0.297852,0.976563 0.198565,0.214844 0.509437,0.322266 0.932617,0.322265 0.559892,10e-7 0.96842,-0.152994 1.225586,-0.458984 0.260412,-0.305988 0.39062,-0.805662 0.390625,-1.499023 l 0,-2.8125 0.810547,0 0,5.351562 -0.668946,0 -0.117187,-0.717773 -0.04395,0 c -0.166019,0.263672 -0.397139,0.465495 -0.693359,0.605468 -0.292972,0.139974 -0.628258,0.209961 -1.005859,0.209961 -0.651044,0 -1.139325,-0.154622 -1.464844,-0.463867 -0.322267,-0.309244 -0.483399,-0.804035 -0.483399,-1.484375 l 0,-3.500976 0.820313,0"
         style="font-size:10px;font-variant:normal;font-weight:normal;font-stretch:normal;fill:#ffffff;font-family:Open Sans;-inkscape-font-specification:Open Sans"
         id="path3922" />
      <path
         d="m 26.390625,49.392895 c 0.237627,6e-6 0.450843,0.01954 0.639648,0.05859 l -0.112304,0.751953 c -0.221358,-0.04882 -0.41667,-0.07324 -0.585938,-0.07324 -0.432945,5e-6 -0.804039,0.175786 -1.113281,0.527344 -0.305991,0.351566 -0.458986,0.789391 -0.458984,1.313476 l 0,2.871094 -0.810547,0 0,-5.351562 0.668945,0 0.09277,0.991211 0.03906,0 c 0.198566,-0.348303 0.437823,-0.616857 0.717773,-0.805665 0.279946,-0.188796 0.587563,-0.283197 0.922852,-0.283203"
         style="font-size:10px;font-variant:normal;font-weight:normal;font-stretch:normal;fill:#ffffff;font-family:Open Sans;-inkscape-font-specification:Open Sans"
         id="path3924" />
      <path
         d="m 32.357422,54.270825 c 0.143226,10e-7 0.281573,-0.0098 0.415039,-0.0293 0.13346,-0.02279 0.239255,-0.04557 0.317383,-0.06836 l 0,0.620117 c -0.08789,0.04232 -0.218102,0.0765 -0.390625,0.102539 -0.169274,0.0293 -0.322268,0.04395 -0.458985,0.04395 -1.035157,0 -1.552735,-0.545247 -1.552734,-1.635742 l 0,-3.183594 -0.766602,0 0,-0.390625 0.766602,-0.336914 0.341797,-1.142578 0.46875,0 0,1.240235 1.552734,0 0,0.629882 -1.552734,0 0,3.149414 c -2e-6,0.322267 0.0765,0.569663 0.229492,0.742188 0.152993,0.172527 0.362953,0.25879 0.629883,0.258789"
         style="font-size:10px;font-variant:normal;font-weight:normal;font-stretch:normal;fill:#ffffff;font-family:Open Sans;-inkscape-font-specification:Open Sans"
         id="path3926" />
      <path
         d="m 37.826172,54.842114 0,-3.461914 c -5e-6,-0.436194 -0.09929,-0.761714 -0.297852,-0.976562 -0.198571,-0.21484 -0.509444,-0.322261 -0.932617,-0.322266 -0.563154,5e-6 -0.974937,0.152999 -1.235351,0.458984 -0.257164,0.305994 -0.385744,0.807295 -0.385743,1.503907 l 0,2.797851 -0.810547,0 0,-7.597656 0.810547,0 0,2.299805 c -10e-7,0.276697 -0.01302,0.506189 -0.03906,0.688476 l 0.04883,0 c 0.159503,-0.257156 0.38574,-0.458979 0.678711,-0.605469 0.296221,-0.149734 0.633135,-0.224604 1.010742,-0.224609 0.654293,5e-6 1.144201,0.156255 1.469727,0.46875 0.328771,0.309249 0.493158,0.802413 0.493164,1.479492 l 0,3.491211 -0.810547,0"
         style="font-size:10px;font-variant:normal;font-weight:normal;font-stretch:normal;fill:#ffffff;font-family:Open Sans;-inkscape-font-specification:Open Sans"
         id="path3928" />
      <path
         d="m 42.557617,54.93977 c -0.791018,0 -1.416017,-0.240885 -1.875,-0.722656 -0.45573,-0.48177 -0.683594,-1.150714 -0.683594,-2.006836 0,-0.862627 0.211588,-1.547847 0.634766,-2.055664 0.426431,-0.507807 0.997719,-0.761713 1.713867,-0.761719 0.67057,6e-6 1.201168,0.22136 1.591797,0.664063 0.39062,0.439457 0.585933,1.020511 0.585938,1.743164 l 0,0.512695 -3.686524,0 c 0.01628,0.628257 0.174152,1.105145 0.473633,1.430664 0.302732,0.325522 0.727536,0.488282 1.274414,0.488282 0.576168,0 1.145829,-0.120442 1.708984,-0.361329 l 0,0.722657 c -0.286462,0.123698 -0.558272,0.211588 -0.815429,0.263672 -0.25391,0.05534 -0.561527,0.08301 -0.922852,0.08301 m -0.219726,-4.868164 c -0.42969,5e-6 -0.773114,0.139979 -1.030274,0.419922 -0.253908,0.279952 -0.403647,0.667322 -0.449219,1.16211 l 2.797852,0 c -4e-6,-0.511064 -0.113936,-0.901689 -0.341797,-1.171875 -0.227868,-0.273433 -0.553389,-0.410152 -0.976562,-0.410157 m -0.600586,-1.411133 c 0.156247,-0.201816 0.32389,-0.445956 0.502929,-0.732421 0.182289,-0.286452 0.325518,-0.535475 0.429688,-0.747071 l 0.986328,0 0,0.102539 c -0.143233,0.211596 -0.356449,0.472013 -0.639648,0.78125 -0.283207,0.309252 -0.528975,0.548509 -0.737305,0.717774 l -0.541992,0 0,-0.122071"
         style="font-size:10px;font-variant:normal;font-weight:normal;font-stretch:normal;fill:#ffffff;font-family:Open Sans;-inkscape-font-specification:Open Sans"
         id="path3930" />
    </g>
  </g>
</svg>
